<svg xmlns="http://www.w3.org/2000/svg" width="111" height="61" viewBox="0 0 111 61">
    <defs>
        <linearGradient id="0lz60gmaxa" x1="37.526%" x2="94.328%" y1="62.09%" y2="4.869%">
            <stop offset="0%" stop-color="#FFF" stop-opacity="0"/>
            <stop offset="100%" stop-color="#BBBDBF"/>
        </linearGradient>
        <linearGradient id="42z9ygek5b" x1="21.377%" x2="28.74%" y1="68.028%" y2="51.683%">
            <stop offset="0%" stop-color="#302387"/>
            <stop offset="100%" stop-color="#FF206E"/>
        </linearGradient>
        <linearGradient id="qfk41pgexc" x1="26.903%" x2="85.294%" y1="76.774%" y2="8.976%">
            <stop offset="0%" stop-color="#DC0058"/>
            <stop offset="100%" stop-color="#DC0058"/>
        </linearGradient>
    </defs>
    <g fill="none" fill-rule="evenodd">
        <g fill-rule="nonzero">
            <g>
                <g>
                    <g transform="translate(-246 -60) translate(20 60) translate(226)">
                        <path fill="url(#0lz60gmaxa)" d="M25.342 22.908C20.79 28.28 18.57 33.262 17.585 37.41c-1.742.79-3.401.953-4.448.111-.035-.025-.063-.05-.094-.08-1.956-1.748-3.603-3.813-4.873-6.107 9.013-7.314 16.054-8.3 17.05-8.412l.122-.014z"/>
                        <path fill="url(#42z9ygek5b)" d="M62.148 0c-.472.4-30.795 25.99-41.185 35.173-1.01.906-2.149 1.66-3.378 2.237-1.742.79-3.401.95-4.448.111-.032-.025-.063-.05-.092-.08-.526-.516-.86-1.198-.944-1.93-.769-4.55 10.472-11.679 13.142-12.575-2.476-1.003-5.851-.452-6.176-.528-2.026-1.602-4.658-2.226-7.188-1.707-1.669.278-3.368.323-5.049.134-1.03-.135-1.978-.626-2.684-1.388-.338-.376-.57-.835-.671-1.33L0 1.99l14.719 15.07L62.149 0z"/>
                        <circle cx="15.106" cy="23.443" r="1" fill="url(#qfk41pgexc)"/>
                    </g>
                    <g fill="#302387">
                        <g transform="translate(-246 -60) translate(20 60) translate(226) translate(32.728 19.905) translate(5.407)">
                            <g>
                                <path d="M43.957 9.529c.08-.073.186-.11.294-.101.108.008.207.06.276.144.062.07.096.161.096.255v5.63c.001.647-.132 1.286-.39 1.878-.255.575-.614 1.1-1.058 1.547-.45.446-.976.807-1.554 1.066-.596.267-1.242.405-1.895.404H37.88c-.046.003-.093.003-.139 0h-.208c-.782-.002-1.561-.087-2.325-.253-.632-.125-1.228-.393-1.742-.782-.846.679-1.902 1.045-2.988 1.035h-2.985c-1.1.022-2.174-.337-3.04-1.016-.35.285-.741.515-1.16.683-.576.23-1.19.347-1.81.344H.138l.137-.13c.616-.62 1.113-1.346 1.466-2.145.2-.455.346-.932.435-1.422h19.31c.653-.015 1.18-.54 1.195-1.194.008-.272-.045-.542-.157-.79-.1-.2-.236-.378-.401-.527-.15-.132-.322-.236-.51-.307-.185-.069-.375-.124-.569-.165L10.632 11.71V8.784l10.04-8.65c.164-.141.406-.141.57 0l2.342 2.01L15.9 9.04l.455.085c.436.08.914.165 1.423.25l1.563.268c.52.093.996.176 1.422.256.427.08.772.15 1.01.204 1.276.185 2.45.798 3.33 1.738.83 1.018 1.252 2.308 1.184 3.62.012.328.146.64.376.875.217.215.514.33.82.319h2.968c.317.004.621-.128.834-.364.24-.24.372-.57.364-.91v-3.202l.913-.782 2.135-1.831c.08-.073.186-.11.294-.101.107.008.207.06.275.144.06.071.094.162.094.255v5.597c-.008.32.118.629.347.853.223.232.533.359.854.35h3.159c.15 0 .298-.034.432-.1.148-.07.282-.166.396-.284.113-.125.204-.267.27-.421.06-.15.091-.309.091-.47v-3.235l3.048-2.625z" transform="translate(25.897)"/>
                            </g>
                            <ellipse cx="69.086" cy="5.764" rx="1.801" ry="1.8"/>
                            <ellipse cx="65.572" cy="5.764" rx="1.801" ry="1.8"/>
                            <ellipse cx="56.812" cy="24.802" rx="1.801" ry="1.8"/>
                            <ellipse cx="53.3" cy="24.802" rx="1.801" ry="1.8"/>
                            <ellipse cx="18.857" cy="24.802" rx="1.801" ry="1.8"/>
                            <ellipse cx="1.918" cy="12.222" rx="1.801" ry="1.8"/>
                        </g>
                        <path d="M31.043 9.557c.08-.072.185-.108.293-.1.107.007.207.058.276.14.06.073.093.164.094.259v5.56c.002.65-.133 1.294-.396 1.89-.255.581-.616 1.11-1.064 1.558-.114.114-.233.222-.356.325-.336.276-.704.512-1.095.702-.688.287-1.424.444-2.169.46h-5.305c-.577-.025-1.146-.156-1.676-.386-1.178-.498-2.115-1.436-2.612-2.613-.231-.53-.362-1.098-.388-1.675V3.014c0-.127.054-.248.151-.33L19.588.321c.087-.073.2-.11.312-.1.114.01.218.064.291.152.07.078.106.18.103.284l.028 14.8c-.005.314.125.614.356.825.24.236.566.364.902.353h5.171c.15.002.3-.03.436-.097.303-.148.541-.402.671-.713.065-.15.098-.31.097-.472v-3.128l3.088-2.668zM15 7.336v12.228c-.01 3.176-2.59 5.744-5.768 5.744h-3.4c-3.187 0-5.77-2.58-5.77-5.764v-2.681l3.074-2.628c.17-.144.425-.124.57.046.062.074.096.167.096.264v4.348c0 .725.29 1.42.806 1.93.515.51 1.212.794 1.938.788H8.65c1.505 0 2.724-1.218 2.724-2.721V9.586l2.982-2.56c.118-.1.284-.123.426-.059.14.065.231.206.232.361L15 7.336z" transform="translate(-246 -60) translate(20 60) translate(226) translate(32.728 19.905)"/>
                    </g>
                    <g fill="#FF206E">
                        <path d="M7.684 2.804c.025.807.037 1.342.037 1.606.019.288-.117.564-.356.726-.26.162-.562.244-.868.233-.322.039-.631-.137-.763-.433-.09.15-.226.267-.39.33-.157.07-.326.105-.497.106-.262.027-.52-.08-.686-.285 0 .066 0 .154.014.285.011.172.017.309.017.409-.003.414-.26.784-.649.93-.51.227-1.066.335-1.625.316-.505.06-1.013-.092-1.403-.418-.242-.25-.378-.583-.381-.93C.147 5.4.18 5.125.23 4.85c.062-.4.147-.904.253-1.513l.51.117c-.149.836-.246 1.504-.285 2.01-.044.26.114.51.367.583.288.103.593.154.899.151.307 0 .614-.026.916-.08.258-.042.505-.131.729-.264l-.285-2.801.655-.148.094 1.115c0 .155.062.304.17.415.146.088.315.128.484.114.237.026.475-.028.678-.154l-.029-1.422.598-.022.037 1.495c.12.082.263.12.407.111.255.008.509-.047.737-.162L6.998 2.65l.663-.108c-.006.043 0 .137.023.262zm-2.621-.697l-.552-.46.466-.57.553.47-.467.56zm.518-1.04L5.034.605l.461-.569.57.472-.484.557zm.472 0l.57.469-.465.568-.554-.469.45-.569zM11.682 4.638c.016.075.024.151.023.227v.197c.001.075-.007.15-.023.224-.014.06-.031.091-.05.091h-.604c-.135.453-.39.86-.737 1.18-.395.366-.855.655-1.355.853l-.398-.654c.43-.157.835-.372 1.206-.64.302-.21.556-.483.746-.798-.252.051-.509.076-.766.073-.17.001-.34-.011-.51-.036-.07-.012-.138-.04-.195-.086-.068-.06-.128-.13-.177-.207-.053-.071-.096-.15-.125-.234-.023-.068-.031-.14-.026-.213.018-.457.127-.905.322-1.32.165-.345.513-.567.896-.572.384-.005.737.208.911.55.182.401.279.836.285 1.277h.518c.028 0 .045.028.06.088zm-1.872 0c.251.007.503-.012.751-.057.023-.3-.037-.601-.174-.87-.108-.175-.303-.277-.509-.267-.2-.004-.384.106-.475.284-.126.266-.186.559-.174.853.187.042.378.059.57.051l.01.006z" transform="translate(-246 -60) translate(20 60) translate(226) translate(33.297 52.038)"/>
                        <path d="M13.253 4.635c.018.075.025.151.023.228v.196c.001.074-.007.149-.023.222-.013.062-.03.093-.051.093h-1.57c-.02 0-.038-.03-.055-.093-.02-.073-.029-.147-.026-.222v-.196c-.002-.076.005-.151.02-.225.015-.063.034-.091.06-.091h1.571c.02.003.037.031.051.088z" transform="translate(-246 -60) translate(20 60) translate(226) translate(33.297 52.038)"/>
                        <path d="M14.827 4.635c.016.075.024.151.023.228v.196c0 .074-.008.149-.023.222-.013.062-.03.093-.051.093h-1.574c-.017 0-.037-.03-.054-.093-.017-.073-.026-.148-.026-.222v-.196c0-.076.007-.151.023-.225.014-.063.034-.091.057-.091h1.574c.023.003.037.031.051.088z" transform="translate(-246 -60) translate(20 60) translate(226) translate(33.297 52.038)"/>
                        <path d="M16.4 4.635c.016.075.023.151.02.228v.196c.003.074-.004.149-.02.222-.013.062-.03.093-.05.093h-1.574c-.02 0-.037-.03-.054-.093-.017-.073-.026-.148-.026-.222v-.196c-.001-.076.007-.151.023-.225.014-.063.034-.091.057-.091h1.574c.02.003.037.031.05.088z" transform="translate(-246 -60) translate(20 60) translate(226) translate(33.297 52.038)"/>
                        <path d="M17.972 4.635c.017.075.025.151.022.228v.196c.001.074-.006.149-.022.222-.015.062-.033.093-.052.093h-1.57c-.02 0-.037-.03-.055-.093-.02-.073-.028-.147-.025-.222v-.196c-.002-.076.005-.151.02-.225.017-.063.034-.091.06-.091h1.579c0 .003.028.031.043.088z" transform="translate(-246 -60) translate(20 60) translate(226) translate(33.297 52.038)"/>
                        <path d="M19.545 4.635c.016.075.022.151.02.228v.196c.002.074-.004.149-.02.222-.015.062-.032.093-.05.093h-1.566c-.02 0-.037-.03-.054-.093-.02-.073-.029-.147-.026-.222v-.196c0-.076.007-.151.023-.225.014-.063.034-.091.057-.091h1.574c.011.003.028.031.042.088z" transform="translate(-246 -60) translate(20 60) translate(226) translate(33.297 52.038)"/>
                        <path d="M23.336 3.344c.156.219.237.482.23.75-.007.265-.054.527-.139.777-.018.073-.053.142-.102.2-.063.072-.134.137-.21.195-.095.092-.217.149-.348.162-.056-.002-.11-.014-.162-.037l-.996-.403c-.19.257-.894.387-2.112.39-.02 0-.037-.032-.054-.092-.018-.073-.027-.149-.026-.224v-.2c0-.074.007-.148.023-.221 0-.063.034-.091.057-.091h1.195c-.18-.055-.343-.158-.47-.299-.113-.132-.174-.303-.17-.478-.001-.197.043-.392.13-.568.1-.202.222-.393.362-.569l-.35-.176.305-.666 2.097.967c.294.126.55.327.74.583zm-1.54-.134l-.737-.344c-.247.203-.415.486-.475.8 0 .132.073.254.19.315.195.103.405.176.621.216l.402-.987zm1.233 1.013c-.002-.178-.07-.35-.19-.48-.153-.159-.344-.273-.556-.33l-.37.95.974.374c.098-.152.149-.33.147-.511l-.005-.003zM27.625 4.638c.017.074.025.15.023.227v.197c.002.075-.006.15-.023.224 0 .06-.031.091-.048.091H27.4c-.38.035-.756-.084-1.047-.33-.254-.322-.379-.728-.35-1.137L25.895.213l.663-.159.057 3.87c-.006.17.056.336.173.46.126.119.295.18.467.169h.322c.028-.003.028.025.048.085z" transform="translate(-246 -60) translate(20 60) translate(226) translate(33.297 52.038)"/>
                        <path d="M29.199 4.635c.016.075.023.151.022.228v.196c0 .074-.008.149-.022.222-.014.062-.03.093-.052.093h-1.57c-.02 0-.04-.03-.057-.093-.018-.073-.026-.148-.026-.222v-.196c-.001-.076.007-.151.023-.225.014-.063.034-.091.06-.091h1.57c.02.003.037.031.052.088z" transform="translate(-246 -60) translate(20 60) translate(226) translate(33.297 52.038)"/>
                        <path d="M30.989 2.753c.031.637.045 1.137.045 1.547.005.316-.166.61-.444.762-.21.117-.437.198-.674.238-.253.052-.51.077-.769.077-.02 0-.037-.028-.054-.09-.017-.074-.025-.15-.025-.225v-.197c-.001-.075.006-.15.023-.224.014-.06.034-.091.056-.091.26.003.52-.015.777-.051.194-.026.382-.086.555-.177l-.165-1.677.66-.111.015.219zm-1.156 3.503l.626.526-.526.611-.62-.514.52-.623zM35.997 4.638c.017.075.024.151.023.227v.197c.001.075-.007.15-.023.224-.014.06-.03.091-.05.091h-.203c-.34.033-.677-.094-.91-.344v.029c-.003.475-.184.933-.507 1.282-.452.468-.993.842-1.59 1.1l-.402-.65c.462-.198.9-.451 1.3-.754.263-.197.474-.454.615-.75l-.239-2.15.649-.16.102.995c.006.143.058.28.148.39.083.086.192.14.31.153.182.024.364.034.547.032h.18c.02 0 .036.028.05.088z" transform="translate(-246 -60) translate(20 60) translate(226) translate(33.297 52.038)"/>
                        <path d="M37.566 4.635c.016.075.023.151.022.228v.196c.001.074-.006.149-.022.222-.016.062-.033.093-.052.093h-1.573c-.02 0-.037-.03-.055-.093-.017-.073-.025-.148-.025-.222v-.196c-.001-.076.006-.151.023-.225 0-.063.034-.091.057-.091h1.573c.026.003.052.031.052.088z" transform="translate(-246 -60) translate(20 60) translate(226) translate(33.297 52.038)"/>
                        <path d="M39.145 4.635c.015.075.022.151.02.228v.196c.002.074-.005.149-.02.222-.017.062-.034.093-.051.093H37.52c-.02 0-.037-.03-.054-.093-.02-.073-.029-.147-.026-.222v-.196c-.002-.076.006-.152.023-.225.014-.063.034-.091.057-.091h1.574c.017.003.034.031.051.088z" transform="translate(-246 -60) translate(20 60) translate(226) translate(33.297 52.038)"/>
                        <path d="M40.716 4.635c.016.075.024.151.023.228v.196c0 .074-.007.149-.023.222-.013.062-.03.093-.051.093h-1.571c-.02 0-.04-.03-.057-.093-.017-.073-.026-.148-.026-.222v-.196c0-.076.008-.151.023-.225.014-.063.034-.091.06-.091h1.57c.032.003.032.031.052.088z" transform="translate(-246 -60) translate(20 60) translate(226) translate(33.297 52.038)"/>
                        <path d="M42.29 4.635c.015.075.022.151.02.228v.196c.002.074-.005.149-.02.222-.017.062-.034.093-.052.093h-1.573c-.02 0-.037-.03-.054-.093-.018-.073-.026-.148-.026-.222v-.196c-.001-.076.007-.151.023-.225.014-.063.034-.091.057-.091h1.573c.018.003.035.031.052.088z" transform="translate(-246 -60) translate(20 60) translate(226) translate(33.297 52.038)"/>
                        <path d="M45.673 4.638c.018.074.026.15.023.227v.197c.001.075-.006.15-.023.224-.014.06-.03.091-.048.091h-.48c-.24.009-.477-.025-.704-.1-.174-.06-.33-.164-.45-.304-.383.313-.876.458-1.368.404h-.385c-.02 0-.037-.031-.054-.09-.02-.074-.028-.15-.025-.225v-.197c-.002-.075.004-.15.02-.224.014-.06.034-.091.06-.091h.663c.118.007.237.007.355 0-.131-.089-.248-.197-.347-.322-.087-.097-.14-.221-.148-.352.017-.23.089-.454.208-.651.133-.252.304-.482.51-.68.127-.16.313-.264.517-.287.204-.023.41.036.57.165l.06.05c.184.162.327.366.415.595.102.256.153.53.15.805.014.161-.024.322-.108.46-.087.108-.207.183-.341.214.153 0 .27.014.347.014h.532c.02-.011.04.017.051.077zm-2.151-.555c.13.121.274.228.427.319l.686-.358c-.009-.252-.069-.498-.177-.726-.105-.218-.239-.327-.395-.327-.119.009-.23.058-.316.14-.112.093-.208.203-.285.327-.067.09-.108.198-.12.31.016.126.083.24.186.315h-.006zm.652-2.687L43.562.87l.512-.623.626.52-.526.63z" transform="translate(-246 -60) translate(20 60) translate(226) translate(33.297 52.038)"/>
                        <path d="M50.588 4.41c.02.29-.114.569-.353.734-.26.163-.563.244-.87.233-.329.04-.646-.134-.789-.432-.095.148-.236.26-.401.321-.169.071-.35.109-.532.111-.327.04-.64-.14-.771-.44-.318.342-.784.507-1.247.44-.02 0-.037-.031-.054-.09-.017-.074-.026-.15-.026-.225v-.197c0-.075.007-.15.023-.224.014-.06.034-.091.057-.091.327.016.654-.045.953-.177l.015-1.137.597.014-.02.882c0 .173.037.284.131.335.14.059.292.084.444.074.197.018.393-.037.552-.153l-.028-1.436.606-.017.028 1.49c.121.086.268.127.416.116.252.01.502-.043.729-.153l-.163-1.752.658-.12c.031.686.045 1.311.045 1.894zM53.926 7.442c-.322-.2-.578-.493-.734-.84-.147-.331-.223-.69-.222-1.054-.013-.398.085-.792.285-1.138.222-.35.506-.657.836-.907-.296-.395-.466-.87-.486-1.365-.02-.335.135-.658.41-.853.318-.202.69-.3 1.067-.284.183-.003.367.014.546.051l-.116.703c-.166-.024-.334-.037-.501-.037-.287-.015-.573.042-.831.167.017.25.067.495.148.731.066.206.168.399.301.569l1.77-.538.131.743c-.626.176-1.09.315-1.397.423-.285.099-.558.232-.811.396-.248.17-.465.38-.643.622-.043.208-.066.42-.068.632-.032.414.122.822.42 1.111.365.273.816.405 1.27.37h1.517l-.154.828h-1.423c-.46.02-.918-.095-1.315-.33zM59.8 3.347c.174.436.26.902.254 1.37.008.58-.194 1.145-.57 1.587-.434.495-.982.876-1.596 1.112l-.401-.657c.426-.158.83-.373 1.198-.64.304-.21.56-.483.754-.799-.254.052-.512.077-.771.074-.172 0-.343-.012-.513-.037-.071-.01-.139-.04-.196-.085-.066-.06-.122-.13-.168-.208-.053-.071-.097-.15-.13-.233-.026-.068-.035-.14-.03-.213.02-.457.132-.905.33-1.317.152-.354.504-.58.889-.568.417-.027.803.222.95.614zM58.76 4.644c.249.005.497-.014.742-.057.023-.3-.036-.601-.17-.87-.109-.174-.302-.276-.507-.268-.2-.006-.387.105-.478.285-.124.267-.182.559-.17.853.19.044.387.063.583.057zM63.637 4.638c.015.075.021.151.02.227v.197c.001.075-.005.15-.02.224-.015.06-.032.091-.052.091h-.21c-.36.047-.72-.091-.956-.367v.052c0 .463-.158.912-.447 1.274-.368.445-.822.811-1.335 1.077l-.396-.65c.678-.306 1.237-.823 1.594-1.474l-.253-2.147.654-.162.109.998c.002.142.053.278.145.387.087.085.2.14.321.153.194.025.389.036.584.032h.187c.023 0 .04.028.055.088z" transform="translate(-246 -60) translate(20 60) translate(226) translate(33.297 52.038)"/>
                        <path d="M65.207 4.635c.017.075.024.151.023.228v.196c.001.074-.006.149-.023.222-.015.062-.032.093-.05.093h-1.572c-.02 0-.037-.03-.054-.093-.02-.073-.028-.147-.025-.222v-.196c-.002-.076.004-.151.02-.225 0-.063.034-.091.06-.091h1.584c0 .003.023.031.037.088z" transform="translate(-246 -60) translate(20 60) translate(226) translate(33.297 52.038)"/>
                        <path d="M66.781 4.635c.016.075.024.151.023.228v.196c0 .074-.008.149-.023.222-.013.062-.03.093-.051.093h-1.56c-.02 0-.037-.03-.054-.093-.017-.073-.025-.148-.025-.222v-.196c-.001-.076.006-.151.023-.225.014-.063.034-.091.056-.091h1.574c.006.003.023.031.037.088z" transform="translate(-246 -60) translate(20 60) translate(226) translate(33.297 52.038)"/>
                        <path d="M68.355 4.635c.015.075.022.151.02.228v.196c.002.074-.005.149-.02.222-.017.062-.034.093-.054.093H66.73c-.02 0-.037-.03-.054-.093-.02-.073-.029-.147-.026-.222v-.196c-.002-.076.006-.152.023-.225.014-.063.034-.091.057-.091h1.57c.02.003.038.031.055.088z" transform="translate(-246 -60) translate(20 60) translate(226) translate(33.297 52.038)"/>
                        <path d="M73.267 4.41c.022.29-.113.57-.353.734-.26.163-.564.244-.87.233-.33.04-.646-.134-.79-.432-.094.148-.235.26-.4.321-.169.071-.35.109-.532.111-.327.04-.64-.14-.772-.44-.317.341-.782.506-1.243.44-.02 0-.04-.031-.057-.09-.018-.074-.025-.15-.023-.225v-.197c-.002-.075.005-.15.02-.224.014-.063.034-.091.06-.091.327.014.653-.046.953-.177l.014-1.137.598.014-.023.879c0 .176.04.284.131.338.142.057.294.083.447.074.196.018.393-.037.552-.153l-.029-1.44.604-.013.028 1.49c.12.09.269.134.419.125.251.007.501-.045.728-.154l-.16-1.754.655-.117c.029.677.043 1.305.043 1.885zm-2.561-2.274l-.555-.47.466-.568.57.469-.481.569zm.515-1.05l-.547-.46.467-.57.57.476-.49.554zm.014.569l.467-.569.555.47-.467.568-.555-.469z" transform="translate(-246 -60) translate(20 60) translate(226) translate(33.297 52.038)"/>
                    </g>
                </g>
            </g>
        </g>
    </g>
</svg>
